<svg width="32" height="32" viewBox="0 0 32 32" fill="none" xmlns="http://www.w3.org/2000/svg">
<path d="M9 16V26.833C8.99987 26.9863 9.02996 27.1381 9.08857 27.2797C9.14717 27.4214 9.23312 27.5501 9.34151 27.6585C9.44991 27.7669 9.57861 27.8528 9.72025 27.9114C9.8619 27.97 10.0137 28.0001 10.167 28H28.833C28.9863 28.0001 29.1381 27.97 29.2797 27.9114C29.4214 27.8528 29.5501 27.7669 29.6585 27.6585C29.7669 27.5501 29.8528 27.4214 29.9114 27.2797C29.97 27.1381 30.0001 26.9863 30 26.833V16L19 12L9 16Z" fill="#036C70"/>
<path d="M28.833 4H10.167C10.0137 3.99987 9.8619 4.02996 9.72025 4.08857C9.57861 4.14717 9.44991 4.23312 9.34151 4.34151C9.23312 4.44991 9.14717 4.57861 9.08857 4.72025C9.02996 4.8619 8.99987 5.01371 9 5.167V16H30V5.167C30.0001 5.01371 29.97 4.8619 29.9114 4.72025C29.8528 4.57861 29.7669 4.44991 29.6585 4.34151C29.5501 4.23312 29.4214 4.14717 29.2797 4.08857C29.1381 4.02996 28.9863 3.99987 28.833 4Z" fill="#37C6D0"/>
<path opacity="0.5" d="M16 10H9V24H15.833C16.1423 23.9992 16.4386 23.876 16.6573 23.6573C16.876 23.4386 16.9992 23.1423 17 22.833V11C17 10.7348 16.8946 10.4804 16.7071 10.2929C16.5196 10.1054 16.2652 10 16 10Z" fill="black"/>
<path d="M14.833 9H3.167C2.52248 9 2 9.52248 2 10.167V21.833C2 22.4775 2.52248 23 3.167 23H14.833C15.4775 23 16 22.4775 16 21.833V10.167C16 9.52248 15.4775 9 14.833 9Z" fill="#038387"/>
<path d="M27 19H21V25H27V19Z" fill="#1A9BA1"/>
<path d="M24 14C26.2091 14 28 12.2091 28 10C28 7.79086 26.2091 6 24 6C21.7909 6 20 7.79086 20 10C20 12.2091 21.7909 14 24 14Z" fill="#1A9BA1"/>
<path d="M24 12C25.1046 12 26 11.1046 26 10C26 8.89543 25.1046 8 24 8C22.8954 8 22 8.89543 22 10C22 11.1046 22.8954 12 24 12Z" fill="#036C70"/>
<path d="M11.834 13.047H8.043V15.434H11.577V16.85H8.043V20.378H6.328V11.625H11.834V13.047Z" fill="white"/>
</svg>
