<?xml version="1.0" encoding="utf-8"?>
<!-- Generator: Adobe Illustrator 24.0.0, SVG Export Plug-In . SVG Version: 6.00 Build 0)  -->
<svg version="1.1" id="Layer_1" xmlns="http://www.w3.org/2000/svg" xmlns:xlink="http://www.w3.org/1999/xlink" x="0px" y="0px"
	 viewBox="0 0 1397.36 300.88" style="enable-background:new 0 0 1397.36 300.88;" xml:space="preserve">
<style type="text/css">
	.st0{fill:#2D2D2D;}
	.st1{fill:#3BBCD9;}
</style>
<g id="logo_1_">
	<g>
		<path class="st0" d="M159.05,267.61H35.71C16.02,267.61,0,251.59,0,231.9V35.71C0,16.02,16.02,0,35.71,0h193.78
			c19.69,0,35.71,16.02,35.71,35.71v106.73c0,4.32-3.5,7.83-7.83,7.83c-4.32,0-7.83-3.5-7.83-7.83V35.71
			c0-11.06-9-20.06-20.06-20.06H35.71c-11.06,0-20.06,9-20.06,20.06V231.9c0,11.06,9,20.06,20.06,20.06h123.34
			c4.32,0,7.83,3.5,7.83,7.83C166.87,264.1,163.37,267.61,159.05,267.61z"/>
		<path class="st1" d="M216.02,300.88c-1.12,0-2.23-0.06-3.34-0.18c-12.83-1.35-21.62-10.34-28.68-17.56
			c-0.85-0.87-1.69-1.73-2.52-2.56L117,216.11c-10.71-10.71-15.91-21.81-15.44-32.99c0.55-13.28,8.9-21.51,10.84-23.24l14.68-14.68
			c6.54-6.54,13.86-9.82,21.73-9.71c12.16,0.15,20.68,8.43,21.97,9.76l20.51,20.51c6.58,6.58,20.36,15.11,30.28,5.35
			c10.25-10.09,20.58-20.49,30.57-30.55c5.58-5.62,11.16-11.24,16.77-16.84c3.06-3.06,8.01-3.06,11.07,0
			c3.06,3.06,3.06,8.01,0,11.07c-5.59,5.59-11.16,11.2-16.73,16.8c-10.02,10.09-20.38,20.52-30.7,30.67
			c-16.24,15.98-38.51,8.39-52.33-5.43l-20.7-20.7c-0.01,0-4.96-4.97-11-4.99c-0.01,0-0.03,0-0.04,0c-3.5,0-6.88,1.68-10.34,5.13
			l-15.33,15.29l0,0c0,0-5.4,4.88-5.62,12.4c-0.2,6.57,3.46,13.67,10.88,21.08l64.48,64.48c0.88,0.88,1.76,1.78,2.65,2.69
			c6.12,6.26,11.9,12.17,19.13,12.94c8.22,0.87,15.86-4.87,20.83-9.83L354.16,156.3c5.56-5.56,10.37-10.35,10.68-16.51
			c0.36-7.17-4.91-14.02-9.4-18.51l-18.72-18.72c-3.06-3.06-3.06-8.01,0-11.07c3.06-3.06,8.01-3.06,11.07,0l18.72,18.72
			c9.78,9.78,14.48,20,13.96,30.36c-0.61,12.18-8.73,20.29-15.25,26.8L246.21,286.38C236.67,295.92,226.3,300.88,216.02,300.88z"/>
		<circle class="st1" cx="300.83" cy="108.38" r="7.67"/>
	</g>
	<g>
		<path class="st0" d="M499.36,53.59c3.84,0,7.42,0.34,10.72,1.03c3.3,0.69,6.25,1.58,8.86,2.68l-7.62,24.11
			c-1.37-0.69-2.85-1.24-4.43-1.65c-1.58-0.41-3.54-0.62-5.87-0.62c-3.99,0-7.14,1.27-9.48,3.81c-2.34,2.54-3.5,6.08-3.5,10.61v8.24
			h25.14v23.08h-25.14v77.89h-26.99v-77.89H442.9v-23.08h18.13v-9.89c0-6.18,0.93-11.64,2.78-16.38c1.85-4.74,4.5-8.72,7.93-11.95
			c3.43-3.23,7.49-5.7,12.16-7.42C488.57,54.45,493.72,53.59,499.36,53.59z"/>
		<path class="st0" d="M572.92,98.52c7.83,0,15.01,1.34,21.53,4.02c6.52,2.68,12.16,6.39,16.9,11.13c4.74,4.74,8.45,10.41,11.13,17
			s4.02,13.81,4.02,21.64c0,7.83-1.34,15.04-4.02,21.64c-2.68,6.59-6.39,12.26-11.13,17c-4.74,4.74-10.37,8.45-16.9,11.13
			c-6.53,2.68-13.7,4.02-21.53,4.02c-7.83,0-15.01-1.34-21.53-4.02c-6.53-2.68-12.16-6.39-16.9-11.13
			c-4.74-4.74-8.45-10.41-11.13-17c-2.68-6.59-4.02-13.81-4.02-21.64c0-7.83,1.34-15.04,4.02-21.64s6.39-12.26,11.13-17
			c4.74-4.74,10.37-8.45,16.9-11.13C557.91,99.85,565.09,98.52,572.92,98.52z M572.92,181.14c3.43,0,6.76-0.65,9.99-1.96
			c3.23-1.3,6.08-3.19,8.55-5.67c2.47-2.47,4.43-5.49,5.87-9.07c1.44-3.57,2.16-7.62,2.16-12.16c0-4.53-0.72-8.58-2.16-12.16
			c-1.44-3.57-3.4-6.59-5.87-9.07s-5.33-4.36-8.55-5.67c-3.23-1.3-6.56-1.96-9.99-1.96c-3.57,0-6.94,0.65-10.1,1.96
			c-3.16,1.31-5.98,3.19-8.45,5.67s-4.43,5.5-5.87,9.07c-1.44,3.57-2.16,7.62-2.16,12.16c0,4.53,0.72,8.59,2.16,12.16
			c1.44,3.57,3.4,6.59,5.87,9.07c2.47,2.47,5.29,4.36,8.45,5.67C565.98,180.49,569.35,181.14,572.92,181.14z"/>
		<path class="st0" d="M641.74,101.81h25.35v14.01h1.65c1.24-2.47,2.88-4.74,4.95-6.8s4.36-3.85,6.9-5.39
			c2.54-1.53,5.29-2.77,8.24-3.71c2.95-0.94,5.87-1.41,8.76-1.41c3.57,0,6.63,0.38,9.17,1.15c2.54,0.76,4.7,1.75,6.49,2.97
			l-7.21,24.11c-1.65-0.82-3.47-1.47-5.46-1.96c-1.99-0.48-4.43-0.72-7.32-0.72c-3.71,0-7.08,0.73-10.1,2.18
			c-3.02,1.45-5.6,3.49-7.73,6.11c-2.13,2.62-3.78,5.7-4.95,9.22c-1.17,3.52-1.75,7.35-1.75,11.49v49.72h-26.99V101.81z"/>
		<path class="st0" d="M725.61,101.81h25.35V115h1.65c3.16-4.95,7.45-8.93,12.88-11.95c5.42-3.02,11.44-4.53,18.03-4.53
			c7.69,0,14.15,1.79,19.37,5.36c5.22,3.57,8.93,7.97,11.13,13.19c3.16-5.08,7.62-9.44,13.39-13.08c5.77-3.64,12.78-5.46,21.02-5.46
			c6.18,0,11.54,1,16.07,2.99c4.53,1.99,8.27,4.77,11.23,8.35c2.95,3.57,5.18,7.87,6.7,12.88c1.51,5.02,2.27,10.48,2.27,16.38v63.67
			h-26.99v-58.73c0-13.74-5.63-20.61-16.9-20.61c-3.57,0-6.73,0.79-9.48,2.37c-2.75,1.58-5.05,3.71-6.9,6.39s-3.3,5.87-4.33,9.58
			s-1.55,7.7-1.55,11.95v49.04h-26.99v-58.73c0-13.74-5.91-20.61-17.72-20.61c-3.44,0-6.46,0.79-9.07,2.37
			c-2.61,1.58-4.81,3.71-6.59,6.39c-1.79,2.68-3.16,5.87-4.12,9.58c-0.96,3.71-1.44,7.7-1.44,11.95v49.04h-26.99V101.81z"/>
		<path class="st0" d="M945.89,206.08c-6.59,0-12.47-0.82-17.62-2.47c-5.15-1.65-9.62-3.81-13.39-6.49
			c-3.78-2.68-6.97-5.77-9.58-9.27c-2.61-3.5-4.6-7.04-5.98-10.61l24.11-10.3c2.33,5.22,5.46,9.1,9.38,11.64
			c3.92,2.54,8.27,3.81,13.08,3.81c4.95,0,8.86-0.89,11.75-2.68c2.89-1.78,4.33-3.92,4.33-6.39c0-2.75-1.2-4.98-3.61-6.7
			c-2.4-1.72-6.56-3.26-12.47-4.64l-14.22-3.09c-3.16-0.69-6.42-1.78-9.79-3.3c-3.37-1.51-6.42-3.43-9.17-5.77
			c-2.75-2.33-5.02-5.15-6.8-8.45c-1.79-3.3-2.68-7.14-2.68-11.54c0-4.95,1.06-9.34,3.19-13.19c2.13-3.84,5.05-7.11,8.76-9.79
			c3.71-2.68,8.07-4.74,13.08-6.18c5.01-1.44,10.41-2.16,16.18-2.16c9.61,0,18.2,1.89,25.76,5.67c7.55,3.78,13.12,9.79,16.69,18.03
			l-23.28,9.48c-1.92-3.98-4.74-6.87-8.45-8.65c-3.71-1.78-7.42-2.68-11.13-2.68c-3.85,0-7.21,0.79-10.1,2.37
			c-2.89,1.58-4.33,3.61-4.33,6.08c0,2.34,1.2,4.19,3.61,5.56c2.4,1.38,5.67,2.61,9.79,3.71l15.45,3.71
			c10.3,2.47,17.96,6.42,22.98,11.85c5.01,5.43,7.52,11.85,7.52,19.27c0,4.4-1.03,8.59-3.09,12.57c-2.06,3.99-4.98,7.52-8.76,10.61
			c-3.78,3.09-8.31,5.53-13.6,7.32C958.21,205.18,952.34,206.08,945.89,206.08z"/>
		<path class="st1" d="M1021.71,202.78c-4.95,0-9.17-1.69-12.67-5.07c-3.5-3.38-5.25-7.46-5.25-12.24c0-4.77,1.75-8.82,5.25-12.13
			s7.73-4.97,12.67-4.97c4.94,0,9.13,1.66,12.57,4.97c3.43,3.32,5.15,7.36,5.15,12.13c0,4.77-1.72,8.85-5.15,12.24
			C1030.85,201.09,1026.66,202.78,1021.71,202.78z"/>
		<path class="st0" d="M1123.09,192.07h-1.65c-3.16,3.85-6.97,7.14-11.44,9.89c-4.47,2.75-10.2,4.12-17.21,4.12
			c-5.22,0-10.13-0.86-14.73-2.58c-4.6-1.72-8.62-4.09-12.05-7.11c-3.44-3.02-6.11-6.66-8.04-10.92c-1.92-4.26-2.88-8.93-2.88-14.01
			c0-5.22,1.03-9.92,3.09-14.12c2.06-4.19,4.95-7.79,8.66-10.82c3.71-3.02,8.07-5.32,13.08-6.9c5.01-1.58,10.47-2.37,16.38-2.37
			c6.59,0,12.02,0.52,16.28,1.55c4.26,1.03,7.76,2.1,10.51,3.19v-3.09c0-5.36-2.13-9.79-6.39-13.29c-4.26-3.5-9.55-5.25-15.87-5.25
			c-9.34,0-17.24,3.92-23.7,11.75l-19.58-13.39c10.71-13.46,25.35-20.19,43.89-20.19c15.66,0,27.61,3.68,35.85,11.02
			c8.24,7.35,12.36,18.24,12.36,32.66v60.58h-26.58V192.07z M1123.09,161.78c-3.16-1.51-6.42-2.71-9.79-3.61
			c-3.37-0.89-7.04-1.34-11.02-1.34c-6.46,0-11.44,1.41-14.94,4.22c-3.5,2.82-5.25,6.28-5.25,10.41s1.68,7.42,5.05,9.89
			c3.36,2.47,7.24,3.71,11.64,3.71c3.57,0,6.87-0.65,9.89-1.96c3.02-1.3,5.6-3.02,7.73-5.15c2.13-2.13,3.78-4.6,4.94-7.42
			C1122.51,167.72,1123.09,164.8,1123.09,161.78z"/>
		<path class="st0" d="M1170.28,101.81h25.35v12.16h1.65c2.47-4.26,6.32-7.9,11.54-10.92c5.22-3.02,11.68-4.53,19.37-4.53
			c6.46,0,12.6,1.34,18.44,4.02c5.84,2.68,10.99,6.39,15.45,11.13c4.46,4.74,8,10.41,10.61,17c2.61,6.59,3.92,13.81,3.92,21.64
			c0,7.83-1.31,15.04-3.92,21.64c-2.61,6.59-6.15,12.26-10.61,17c-4.47,4.74-9.62,8.45-15.45,11.13
			c-5.84,2.68-11.99,4.02-18.44,4.02c-7.69,0-14.15-1.51-19.37-4.53c-5.22-3.02-9.07-6.66-11.54-10.92h-1.65l1.65,14.42v42.24
			h-26.99V101.81z M1222.62,181.14c3.57,0,6.97-0.69,10.2-2.06c3.23-1.37,6.08-3.3,8.55-5.77c2.47-2.47,4.46-5.49,5.98-9.07
			c1.51-3.57,2.27-7.55,2.27-11.95c0-4.39-0.76-8.38-2.27-11.95c-1.51-3.57-3.5-6.59-5.98-9.07c-2.47-2.47-5.33-4.39-8.55-5.77
			c-3.23-1.37-6.63-2.06-10.2-2.06c-3.57,0-6.97,0.65-10.2,1.96c-3.23,1.31-6.08,3.19-8.55,5.67c-2.47,2.47-4.47,5.5-5.98,9.07
			c-1.51,3.57-2.27,7.62-2.27,12.16c0,4.53,0.75,8.59,2.27,12.16c1.51,3.57,3.5,6.59,5.98,9.07c2.47,2.47,5.32,4.36,8.55,5.67
			C1215.64,180.49,1219.04,181.14,1222.62,181.14z"/>
		<path class="st0" d="M1291.03,101.81h25.35v12.16h1.65c2.47-4.26,6.32-7.9,11.54-10.92c5.22-3.02,11.68-4.53,19.37-4.53
			c6.46,0,12.6,1.34,18.44,4.02c5.84,2.68,10.99,6.39,15.45,11.13c4.46,4.74,8,10.41,10.61,17c2.61,6.59,3.92,13.81,3.92,21.64
			c0,7.83-1.31,15.04-3.92,21.64c-2.61,6.59-6.15,12.26-10.61,17c-4.47,4.74-9.62,8.45-15.45,11.13
			c-5.84,2.68-11.99,4.02-18.44,4.02c-7.69,0-14.15-1.51-19.37-4.53c-5.22-3.02-9.07-6.66-11.54-10.92h-1.65l1.65,14.42v42.24
			h-26.99V101.81z M1343.37,181.14c3.57,0,6.97-0.69,10.2-2.06c3.23-1.37,6.08-3.3,8.55-5.77c2.47-2.47,4.46-5.49,5.98-9.07
			c1.51-3.57,2.27-7.55,2.27-11.95c0-4.39-0.76-8.38-2.27-11.95c-1.51-3.57-3.5-6.59-5.98-9.07c-2.47-2.47-5.33-4.39-8.55-5.77
			c-3.23-1.37-6.63-2.06-10.2-2.06c-3.57,0-6.97,0.65-10.2,1.96c-3.23,1.31-6.08,3.19-8.55,5.67c-2.47,2.47-4.47,5.5-5.98,9.07
			c-1.51,3.57-2.27,7.62-2.27,12.16c0,4.53,0.75,8.59,2.27,12.16c1.51,3.57,3.5,6.59,5.98,9.07c2.47,2.47,5.32,4.36,8.55,5.67
			C1336.39,180.49,1339.8,181.14,1343.37,181.14z"/>
	</g>
</g>
</svg>
